# MagicaVoxel @ Ephtracy

# group
o 

# material
mtllib Shelf.vox-0.mtl
usemtl palette

# normals
vn -1 0 0
vn 1 0 0
vn 0 0 1
vn 0 0 -1
vn 0 -1 0
vn 0 1 0

# texcoords
vt 0.908203 0.5
vt 0.939453 0.5
vt 0.974609 0.5

# verts
v -1.6 1.2 0.1
v -1.6 1.2 0
v -1.6 4.5 0.1
v -1.6 4.5 0
v -1.5 2.7 0.2
v -1.5 2.7 0.1
v -1.5 3.2 0.2
v -1.5 3.2 0.1
v -1.3 2.8 0.2
v -1.3 2.8 0.1
v -1.3 3.1 0.2
v -1.3 3.1 0.1
v -1.4 2.8 0.2
v -1.4 2.8 0.1
v -1.4 3.1 0.2
v -1.4 3.1 0.1
v -1.2 2.7 0.2
v -1.2 2.7 0.1
v -1.2 3.2 0.2
v -1.2 3.2 0.1
v 1.6 1.2 0.1
v 1.6 1.2 0
v 1.6 4.5 0.1
v 1.6 4.5 0
v -1.5 2.7 0.2
v -1.5 3.2 0.2
v -1.4 2.8 0.2
v -1.4 3.1 0.2
v -1.3 2.8 0.2
v -1.3 3.1 0.2
v -1.2 2.7 0.2
v -1.2 3.2 0.2
v -1.6 1.2 0.1
v -1.6 4.5 0.1
v -1.5 2.7 0.1
v -1.5 3.2 0.1
v -1.4 2.8 0.1
v -1.4 3.1 0.1
v -1.3 2.8 0.1
v -1.3 3.1 0.1
v -1.2 2.7 0.1
v -1.2 3.2 0.1
v 1.6 1.2 0.1
v 1.6 4.5 0.1
v -1.6 1.2 0
v -1.6 4.5 0
v -1.4 2.8 0
v -1.4 3.1 0
v -1.3 2.8 0
v -1.3 3.1 0
v 1.6 1.2 0
v 1.6 4.5 0
v -1.6 1.2 0.1
v 1.6 1.2 0.1
v -1.6 1.2 0
v 1.6 1.2 0
v -1.5 2.7 0.2
v -1.2 2.7 0.2
v -1.5 2.7 0.1
v -1.2 2.7 0.1
v -1.4 3.1 0.2
v -1.3 3.1 0.2
v -1.4 3.1 0.1
v -1.3 3.1 0.1
v -1.4 2.8 0.2
v -1.3 2.8 0.2
v -1.4 2.8 0.1
v -1.3 2.8 0.1
v -1.5 3.2 0.2
v -1.2 3.2 0.2
v -1.5 3.2 0.1
v -1.2 3.2 0.1
v -1.6 4.5 0.1
v 1.6 4.5 0.1
v -1.6 4.5 0
v 1.6 4.5 0

# faces
f 3/1/1 2/1/1 1/1/1
f 4/1/1 2/1/1 3/1/1
f 7/2/1 6/2/1 5/2/1
f 8/2/1 6/2/1 7/2/1
f 11/2/1 10/2/1 9/2/1
f 12/2/1 10/2/1 11/2/1
f 13/2/2 14/2/2 15/2/2
f 15/2/2 14/2/2 16/2/2
f 17/2/2 18/2/2 19/2/2
f 19/2/2 18/2/2 20/2/2
f 21/1/2 22/1/2 23/1/2
f 23/1/2 22/1/2 24/1/2
f 27/2/3 26/2/3 25/2/3
f 28/2/3 26/2/3 27/2/3
f 29/2/3 27/2/3 25/2/3
f 30/2/3 26/2/3 28/2/3
f 31/2/3 29/2/3 25/2/3
f 31/2/3 30/2/3 29/2/3
f 32/2/3 26/2/3 30/2/3
f 32/2/3 30/2/3 31/2/3
f 35/1/3 34/1/3 33/1/3
f 36/1/3 34/1/3 35/1/3
f 39/3/3 38/3/3 37/3/3
f 40/3/3 38/3/3 39/3/3
f 41/1/3 35/1/3 33/1/3
f 42/1/3 34/1/3 36/1/3
f 43/1/3 41/1/3 33/1/3
f 43/1/3 42/1/3 41/1/3
f 44/1/3 34/1/3 42/1/3
f 44/1/3 42/1/3 43/1/3
f 45/1/4 46/1/4 47/1/4
f 47/1/4 46/1/4 48/1/4
f 45/1/4 47/1/4 49/1/4
f 47/3/4 48/3/4 49/3/4
f 48/1/4 46/1/4 50/1/4
f 49/3/4 48/3/4 50/3/4
f 45/1/4 49/1/4 51/1/4
f 49/1/4 50/1/4 51/1/4
f 50/1/4 46/1/4 52/1/4
f 51/1/4 50/1/4 52/1/4
f 55/1/5 54/1/5 53/1/5
f 56/1/5 54/1/5 55/1/5
f 59/2/5 58/2/5 57/2/5
f 60/2/5 58/2/5 59/2/5
f 63/2/5 62/2/5 61/2/5
f 64/2/5 62/2/5 63/2/5
f 65/2/6 66/2/6 67/2/6
f 67/2/6 66/2/6 68/2/6
f 69/2/6 70/2/6 71/2/6
f 71/2/6 70/2/6 72/2/6
f 73/1/6 74/1/6 75/1/6
f 75/1/6 74/1/6 76/1/6
