# MagicaVoxel @ Ephtracy

# group
o 

# material
mtllib Right.vox.mtl
usemtl palette

# normals
vn -1 0 0
vn 1 0 0
vn 0 0 1
vn 0 0 -1
vn 0 -1 0
vn 0 1 0

# texcoords
vt 0.876953 0.5
vt 0.908203 0.5
vt 0.939453 0.5
vt 0.970703 0.5

# verts
v -1.9 0.5 0.3
v -1.9 0.5 0.1
v -1.9 0.6 0.4
v -1.9 0.6 0.3
v -1.9 0.6 0.1
v -1.9 0.6 0
v -1.9 0.8 0.4
v -1.9 0.8 0.3
v -1.9 0.8 0.1
v -1.9 0.8 0
v -1.9 0.9 0.3
v -1.9 0.9 0.1
v 0.4 0.4 0.3
v 0.4 0.4 0.1
v 0.4 0.5 0.4
v 0.4 0.5 0.3
v 0.4 0.5 0.1
v 0.4 0.5 0
v 0.4 0.6 0.5
v 0.4 0.6 0.4
v 0.4 0.6 0.3
v 0.4 0.6 0.1
v 0.4 0.6 0
v 0.4 0.6 -0.1
v 0.4 0.8 0.5
v 0.4 0.8 0.4
v 0.4 0.8 0.3
v 0.4 0.8 0.1
v 0.4 0.8 0
v 0.4 0.8 -0.1
v 0.4 0.9 0.4
v 0.4 0.9 0.3
v 0.4 0.9 0.1
v 0.4 0.9 0
v 0.4 1 0.3
v 0.4 1 0.1
v 1.4 0.6 0.3
v 1.4 0.6 0.1
v 1.4 0.8 0.3
v 1.4 0.8 0.1
v 1.8 0.4 0.3
v 1.8 0.4 0.1
v 1.8 0.5 0.4
v 1.8 0.5 0.3
v 1.8 0.5 0.1
v 1.8 0.5 0
v 1.8 0.6 0.5
v 1.8 0.6 0.4
v 1.8 0.6 0.3
v 1.8 0.6 0.1
v 1.8 0.6 0
v 1.8 0.6 -0.1
v 1.8 0.8 0.5
v 1.8 0.8 0.4
v 1.8 0.8 0.3
v 1.8 0.8 0.1
v 1.8 0.8 0
v 1.8 0.8 -0.1
v 1.8 0.9 0.4
v 1.8 0.9 0.3
v 1.8 0.9 0.1
v 1.8 0.9 0
v 1.8 1 0.3
v 1.8 1 0.1
v 0.4 0.6 0.5
v 0.4 0.8 0.5
v 1.2 0.6 0.5
v 1.2 0.8 0.5
v 1.8 0.6 0.5
v 1.8 0.8 0.5
v -1.9 0.6 0.4
v -1.9 0.8 0.4
v -1.7 0.6 0.4
v -1.7 0.8 0.4
v 0.3 0.6 0.4
v 0.3 0.8 0.4
v 0.4 0.5 0.4
v 0.4 0.6 0.4
v 0.4 0.8 0.4
v 0.4 0.9 0.4
v 1.2 0.5 0.4
v 1.2 0.6 0.4
v 1.2 0.8 0.4
v 1.2 0.9 0.4
v 1.8 0.5 0.4
v 1.8 0.6 0.4
v 1.8 0.8 0.4
v 1.8 0.9 0.4
v -1.9 0.5 0.3
v -1.9 0.6 0.3
v -1.9 0.8 0.3
v -1.9 0.9 0.3
v -1.7 0.5 0.3
v -1.7 0.6 0.3
v -1.7 0.8 0.3
v -1.7 0.9 0.3
v 0.3 0.5 0.3
v 0.3 0.6 0.3
v 0.3 0.8 0.3
v 0.3 0.9 0.3
v 0.4 0.4 0.3
v 0.4 0.5 0.3
v 0.4 0.6 0.3
v 0.4 0.8 0.3
v 0.4 0.9 0.3
v 0.4 1 0.3
v 1.2 0.4 0.3
v 1.2 0.5 0.3
v 1.2 0.9 0.3
v 1.2 1 0.3
v 1.8 0.4 0.3
v 1.8 0.5 0.3
v 1.8 0.9 0.3
v 1.8 1 0.3
v 1.4 0.6 0.1
v 1.4 0.8 0.1
v 1.8 0.6 0.1
v 1.8 0.8 0.1
v 1.4 0.6 0.3
v 1.4 0.8 0.3
v 1.8 0.6 0.3
v 1.8 0.8 0.3
v -1.9 0.5 0.1
v -1.9 0.6 0.1
v -1.9 0.8 0.1
v -1.9 0.9 0.1
v -1.7 0.5 0.1
v -1.7 0.6 0.1
v -1.7 0.8 0.1
v -1.7 0.9 0.1
v 0.3 0.5 0.1
v 0.3 0.6 0.1
v 0.3 0.8 0.1
v 0.3 0.9 0.1
v 0.4 0.4 0.1
v 0.4 0.5 0.1
v 0.4 0.6 0.1
v 0.4 0.8 0.1
v 0.4 0.9 0.1
v 0.4 1 0.1
v 1.2 0.4 0.1
v 1.2 0.5 0.1
v 1.2 0.9 0.1
v 1.2 1 0.1
v 1.8 0.4 0.1
v 1.8 0.5 0.1
v 1.8 0.9 0.1
v 1.8 1 0.1
v -1.9 0.6 0
v -1.9 0.8 0
v -1.7 0.6 0
v -1.7 0.8 0
v 0.3 0.6 0
v 0.3 0.8 0
v 0.4 0.5 0
v 0.4 0.6 0
v 0.4 0.8 0
v 0.4 0.9 0
v 1.2 0.5 0
v 1.2 0.6 0
v 1.2 0.8 0
v 1.2 0.9 0
v 1.8 0.5 0
v 1.8 0.6 0
v 1.8 0.8 0
v 1.8 0.9 0
v 0.4 0.6 -0.1
v 0.4 0.8 -0.1
v 1.2 0.6 -0.1
v 1.2 0.8 -0.1
v 1.8 0.6 -0.1
v 1.8 0.8 -0.1
v 0.4 0.4 0.3
v 1.2 0.4 0.3
v 1.8 0.4 0.3
v 0.4 0.4 0.1
v 1.2 0.4 0.1
v 1.8 0.4 0.1
v 0.4 0.5 0.4
v 1.2 0.5 0.4
v 1.8 0.5 0.4
v -1.9 0.5 0.3
v -1.7 0.5 0.3
v 0.3 0.5 0.3
v 0.4 0.5 0.3
v 1.2 0.5 0.3
v 1.8 0.5 0.3
v -1.9 0.5 0.1
v -1.7 0.5 0.1
v 0.3 0.5 0.1
v 0.4 0.5 0.1
v 1.2 0.5 0.1
v 1.8 0.5 0.1
v 0.4 0.5 0
v 1.2 0.5 0
v 1.8 0.5 0
v 0.4 0.6 0.5
v 1.2 0.6 0.5
v 1.8 0.6 0.5
v -1.9 0.6 0.4
v -1.7 0.6 0.4
v 0.3 0.6 0.4
v 0.4 0.6 0.4
v 1.2 0.6 0.4
v 1.8 0.6 0.4
v -1.9 0.6 0.3
v -1.7 0.6 0.3
v 0.3 0.6 0.3
v 0.4 0.6 0.3
v -1.9 0.6 0.1
v -1.7 0.6 0.1
v 0.3 0.6 0.1
v 0.4 0.6 0.1
v -1.9 0.6 0
v -1.7 0.6 0
v 0.3 0.6 0
v 0.4 0.6 0
v 1.2 0.6 0
v 1.8 0.6 0
v 0.4 0.6 -0.1
v 1.2 0.6 -0.1
v 1.8 0.6 -0.1
v 1.4 0.8 0.3
v 1.8 0.8 0.3
v 1.4 0.8 0.1
v 1.8 0.8 0.1
v 1.4 0.6 0.3
v 1.8 0.6 0.3
v 1.4 0.6 0.1
v 1.8 0.6 0.1
v 0.4 0.8 0.5
v 1.2 0.8 0.5
v 1.8 0.8 0.5
v -1.9 0.8 0.4
v -1.7 0.8 0.4
v 0.3 0.8 0.4
v 0.4 0.8 0.4
v 1.2 0.8 0.4
v 1.8 0.8 0.4
v -1.9 0.8 0.3
v -1.7 0.8 0.3
v 0.3 0.8 0.3
v 0.4 0.8 0.3
v -1.9 0.8 0.1
v -1.7 0.8 0.1
v 0.3 0.8 0.1
v 0.4 0.8 0.1
v -1.9 0.8 0
v -1.7 0.8 0
v 0.3 0.8 0
v 0.4 0.8 0
v 1.2 0.8 0
v 1.8 0.8 0
v 0.4 0.8 -0.1
v 1.2 0.8 -0.1
v 1.8 0.8 -0.1
v 0.4 0.9 0.4
v 1.2 0.9 0.4
v 1.8 0.9 0.4
v -1.9 0.9 0.3
v -1.7 0.9 0.3
v 0.3 0.9 0.3
v 0.4 0.9 0.3
v 1.2 0.9 0.3
v 1.8 0.9 0.3
v -1.9 0.9 0.1
v -1.7 0.9 0.1
v 0.3 0.9 0.1
v 0.4 0.9 0.1
v 1.2 0.9 0.1
v 1.8 0.9 0.1
v 0.4 0.9 0
v 1.2 0.9 0
v 1.8 0.9 0
v 0.4 1 0.3
v 1.2 1 0.3
v 1.8 1 0.3
v 0.4 1 0.1
v 1.2 1 0.1
v 1.8 1 0.1

# faces
f 4/3/1 2/3/1 1/3/1
f 5/3/1 2/3/1 4/3/1
f 7/3/1 4/3/1 3/3/1
f 7/3/1 6/3/1 5/3/1
f 7/3/1 5/3/1 4/3/1
f 8/3/1 6/3/1 7/3/1
f 9/3/1 6/3/1 8/3/1
f 10/3/1 6/3/1 9/3/1
f 11/3/1 9/3/1 8/3/1
f 12/3/1 9/3/1 11/3/1
f 16/3/1 14/3/1 13/3/1
f 17/3/1 14/3/1 16/3/1
f 20/3/1 16/3/1 15/3/1
f 21/3/1 16/3/1 20/3/1
f 22/3/1 18/3/1 17/3/1
f 23/3/1 18/3/1 22/3/1
f 25/3/1 20/3/1 19/3/1
f 26/3/1 20/3/1 25/3/1
f 29/3/1 24/3/1 23/3/1
f 30/3/1 24/3/1 29/3/1
f 31/3/1 27/3/1 26/3/1
f 32/3/1 27/3/1 31/3/1
f 33/3/1 29/3/1 28/3/1
f 34/3/1 29/3/1 33/3/1
f 35/3/1 33/3/1 32/3/1
f 36/3/1 33/3/1 35/3/1
f 37/1/2 38/1/2 39/1/2
f 39/1/2 38/1/2 40/1/2
f 41/2/2 42/2/2 44/2/2
f 44/2/2 42/2/2 45/2/2
f 43/2/2 44/2/2 48/2/2
f 45/2/2 46/2/2 48/2/2
f 44/2/2 45/2/2 48/2/2
f 48/2/2 46/2/2 49/2/2
f 49/2/2 46/2/2 50/2/2
f 50/2/2 46/2/2 51/2/2
f 47/2/2 48/2/2 53/2/2
f 48/2/2 49/2/2 53/2/2
f 53/2/2 49/2/2 54/2/2
f 54/2/2 49/2/2 55/2/2
f 51/2/2 52/2/2 56/2/2
f 50/2/2 51/2/2 56/2/2
f 56/2/2 52/2/2 57/2/2
f 57/2/2 52/2/2 58/2/2
f 54/2/2 55/2/2 59/2/2
f 56/2/2 57/2/2 59/2/2
f 55/2/2 56/2/2 59/2/2
f 59/2/2 57/2/2 60/2/2
f 60/2/2 57/2/2 61/2/2
f 61/2/2 57/2/2 62/2/2
f 60/2/2 61/2/2 63/2/2
f 63/2/2 61/2/2 64/2/2
f 67/3/3 66/3/3 65/3/3
f 68/3/3 66/3/3 67/3/3
f 69/2/3 68/2/3 67/2/3
f 70/2/3 68/2/3 69/2/3
f 73/3/3 72/3/3 71/3/3
f 74/3/3 72/3/3 73/3/3
f 75/4/3 74/4/3 73/4/3
f 76/4/3 74/4/3 75/4/3
f 78/3/3 76/3/3 75/3/3
f 79/3/3 76/3/3 78/3/3
f 81/3/3 78/3/3 77/3/3
f 82/3/3 78/3/3 81/3/3
f 83/3/3 80/3/3 79/3/3
f 84/3/3 80/3/3 83/3/3
f 85/2/3 82/2/3 81/2/3
f 86/2/3 82/2/3 85/2/3
f 87/2/3 84/2/3 83/2/3
f 88/2/3 84/2/3 87/2/3
f 93/3/3 90/3/3 89/3/3
f 94/3/3 90/3/3 93/3/3
f 95/3/3 92/3/3 91/3/3
f 96/3/3 92/3/3 95/3/3
f 97/4/3 94/4/3 93/4/3
f 98/4/3 94/4/3 97/4/3
f 99/4/3 96/4/3 95/4/3
f 100/4/3 96/4/3 99/4/3
f 102/3/3 98/3/3 97/3/3
f 103/3/3 98/3/3 102/3/3
f 104/3/3 100/3/3 99/3/3
f 105/3/3 100/3/3 104/3/3
f 107/3/3 102/3/3 101/3/3
f 108/3/3 102/3/3 107/3/3
f 109/3/3 106/3/3 105/3/3
f 110/3/3 106/3/3 109/3/3
f 111/2/3 108/2/3 107/2/3
f 112/2/3 108/2/3 111/2/3
f 113/2/3 110/2/3 109/2/3
f 114/2/3 110/2/3 113/2/3
f 117/2/3 116/2/3 115/2/3
f 118/2/3 116/2/3 117/2/3
f 119/2/4 120/2/4 121/2/4
f 121/2/4 120/2/4 122/2/4
f 123/3/4 124/3/4 127/3/4
f 127/3/4 124/3/4 128/3/4
f 125/3/4 126/3/4 129/3/4
f 129/3/4 126/3/4 130/3/4
f 127/4/4 128/4/4 131/4/4
f 131/4/4 128/4/4 132/4/4
f 129/4/4 130/4/4 133/4/4
f 133/4/4 130/4/4 134/4/4
f 131/3/4 132/3/4 136/3/4
f 136/3/4 132/3/4 137/3/4
f 133/3/4 134/3/4 138/3/4
f 138/3/4 134/3/4 139/3/4
f 135/3/4 136/3/4 141/3/4
f 141/3/4 136/3/4 142/3/4
f 139/3/4 140/3/4 143/3/4
f 143/3/4 140/3/4 144/3/4
f 141/2/4 142/2/4 145/2/4
f 145/2/4 142/2/4 146/2/4
f 143/2/4 144/2/4 147/2/4
f 147/2/4 144/2/4 148/2/4
f 149/3/4 150/3/4 151/3/4
f 151/3/4 150/3/4 152/3/4
f 151/4/4 152/4/4 153/4/4
f 153/4/4 152/4/4 154/4/4
f 153/3/4 154/3/4 156/3/4
f 156/3/4 154/3/4 157/3/4
f 155/3/4 156/3/4 159/3/4
f 159/3/4 156/3/4 160/3/4
f 157/3/4 158/3/4 161/3/4
f 161/3/4 158/3/4 162/3/4
f 159/2/4 160/2/4 163/2/4
f 163/2/4 160/2/4 164/2/4
f 161/2/4 162/2/4 165/2/4
f 165/2/4 162/2/4 166/2/4
f 167/3/4 168/3/4 169/3/4
f 169/3/4 168/3/4 170/3/4
f 169/2/4 170/2/4 171/2/4
f 171/2/4 170/2/4 172/2/4
f 176/3/5 174/3/5 173/3/5
f 177/2/5 175/2/5 174/2/5
f 177/3/5 174/3/5 176/3/5
f 178/2/5 175/2/5 177/2/5
f 185/3/5 180/3/5 179/3/5
f 186/2/5 181/2/5 180/2/5
f 186/3/5 180/3/5 185/3/5
f 187/2/5 181/2/5 186/2/5
f 188/3/5 183/3/5 182/3/5
f 189/4/5 184/4/5 183/4/5
f 189/3/5 183/3/5 188/3/5
f 190/3/5 185/3/5 184/3/5
f 190/4/5 184/4/5 189/4/5
f 191/3/5 185/3/5 190/3/5
f 194/3/5 192/3/5 191/3/5
f 195/2/5 193/2/5 192/2/5
f 195/3/5 192/3/5 194/3/5
f 196/2/5 193/2/5 195/2/5
f 203/3/5 198/3/5 197/3/5
f 204/2/5 199/2/5 198/2/5
f 204/3/5 198/3/5 203/3/5
f 205/2/5 199/2/5 204/2/5
f 206/3/5 201/3/5 200/3/5
f 207/4/5 202/4/5 201/4/5
f 207/3/5 201/3/5 206/3/5
f 208/3/5 203/3/5 202/3/5
f 208/4/5 202/4/5 207/4/5
f 209/3/5 203/3/5 208/3/5
f 214/3/5 211/3/5 210/3/5
f 215/4/5 212/4/5 211/4/5
f 215/3/5 211/3/5 214/3/5
f 216/3/5 213/3/5 212/3/5
f 216/4/5 212/4/5 215/4/5
f 217/3/5 213/3/5 216/3/5
f 220/3/5 218/3/5 217/3/5
f 221/2/5 219/2/5 218/2/5
f 221/3/5 218/3/5 220/3/5
f 222/2/5 219/2/5 221/2/5
f 225/2/5 224/2/5 223/2/5
f 226/2/5 224/2/5 225/2/5
f 227/2/6 228/2/6 229/2/6
f 229/2/6 228/2/6 230/2/6
f 231/3/6 232/3/6 237/3/6
f 232/2/6 233/2/6 238/2/6
f 237/3/6 232/3/6 238/3/6
f 238/2/6 233/2/6 239/2/6
f 234/3/6 235/3/6 240/3/6
f 235/4/6 236/4/6 241/4/6
f 240/3/6 235/3/6 241/3/6
f 236/3/6 237/3/6 242/3/6
f 241/4/6 236/4/6 242/4/6
f 242/3/6 237/3/6 243/3/6
f 244/3/6 245/3/6 248/3/6
f 245/4/6 246/4/6 249/4/6
f 248/3/6 245/3/6 249/3/6
f 246/3/6 247/3/6 250/3/6
f 249/4/6 246/4/6 250/4/6
f 250/3/6 247/3/6 251/3/6
f 251/3/6 252/3/6 254/3/6
f 252/2/6 253/2/6 255/2/6
f 254/3/6 252/3/6 255/3/6
f 255/2/6 253/2/6 256/2/6
f 257/3/6 258/3/6 263/3/6
f 258/2/6 259/2/6 264/2/6
f 263/3/6 258/3/6 264/3/6
f 264/2/6 259/2/6 265/2/6
f 260/3/6 261/3/6 266/3/6
f 261/4/6 262/4/6 267/4/6
f 266/3/6 261/3/6 267/3/6
f 262/3/6 263/3/6 268/3/6
f 267/4/6 262/4/6 268/4/6
f 268/3/6 263/3/6 269/3/6
f 269/3/6 270/3/6 272/3/6
f 270/2/6 271/2/6 273/2/6
f 272/3/6 270/3/6 273/3/6
f 273/2/6 271/2/6 274/2/6
f 275/3/6 276/3/6 278/3/6
f 276/2/6 277/2/6 279/2/6
f 278/3/6 276/3/6 279/3/6
f 279/2/6 277/2/6 280/2/6
