# MagicaVoxel @ Ephtracy

# group
o 

# material
mtllib TETRIS.vox-2.mtl
usemtl palette

# normals
vn -1 0 0
vn 1 0 0
vn 0 0 1
vn 0 0 -1
vn 0 -1 0
vn 0 1 0

# texcoords
vt 0.720703 0.5
vt 0.751953 0.5
vt 0.783203 0.5
vt 0.814453 0.5
vt 0.845703 0.5
vt 0.876953 0.5
vt 0.908203 0.5
vt 0.939453 0.5
vt 0.970703 0.5

# verts
v -1.1 1 -1.7
v -1.1 1 -2
v -1.1 2 -1.7
v -1.1 2 -2
v 0.2 1.3 -1.7
v 0.2 1.3 -1.8
v 0.2 1.7 -1.7
v 0.2 1.7 -1.8
v 0.2 1.9 -1.7
v 0.2 1.9 -1.8
v 1 1.1 -1.7
v 1 1.1 -1.8
v 1 1.9 -1.7
v 1 1.9 -1.8
v -0.2 1.5 -1.7
v -0.2 1.5 -1.8
v -0.2 1.7 -1.7
v -0.2 1.7 -1.8
v 0 1.3 -1.7
v 0 1.3 -1.8
v 0 1.5 -1.7
v 0 1.5 -1.8
v 0 1.7 -1.7
v 0 1.7 -1.8
v 0 1.9 -1.7
v 0 1.9 -1.8
v 0.8 1.1 -1.7
v 0.8 1.1 -1.8
v 0.8 1.5 -1.7
v 0.8 1.5 -1.8
v 0.8 1.9 -1.7
v 0.8 1.9 -1.8
v 1.1 1 -1.7
v 1.1 1 -2
v 1.1 2 -1.7
v 1.1 2 -2
v -1.1 1 -1.7
v -1.1 2 -1.7
v -1 1.1 -1.7
v -1 1.3 -1.7
v -1 1.5 -1.7
v -1 1.9 -1.7
v -0.8 1.5 -1.7
v -0.8 1.7 -1.7
v -0.6 1.5 -1.7
v -0.6 1.7 -1.7
v -0.4 1.3 -1.7
v -0.4 1.5 -1.7
v -0.4 1.7 -1.7
v -0.4 1.9 -1.7
v -0.2 1.1 -1.7
v -0.2 1.3 -1.7
v -0.2 1.5 -1.7
v -0.2 1.7 -1.7
v 0 1.3 -1.7
v 0 1.5 -1.7
v 0 1.7 -1.7
v 0 1.9 -1.7
v 0.2 1.1 -1.7
v 0.2 1.3 -1.7
v 0.2 1.7 -1.7
v 0.2 1.9 -1.7
v 0.6 1.3 -1.7
v 0.6 1.5 -1.7
v 0.6 1.7 -1.7
v 0.8 1.1 -1.7
v 0.8 1.5 -1.7
v 0.8 1.9 -1.7
v 1 1.1 -1.7
v 1 1.9 -1.7
v 1.1 1 -1.7
v 1.1 2 -1.7
v -0.2 1.5 -1.8
v -0.2 1.7 -1.8
v 0 1.3 -1.8
v 0 1.5 -1.8
v 0 1.7 -1.8
v 0 1.9 -1.8
v 0.2 1.3 -1.8
v 0.2 1.7 -1.8
v 0.2 1.9 -1.8
v 0.8 1.1 -1.8
v 0.8 1.5 -1.8
v 0.8 1.9 -1.8
v 1 1.1 -1.8
v 1 1.9 -1.8
v -1.1 1 -2
v -1.1 2 -2
v 1.1 1 -2
v 1.1 2 -2
v -1.1 1 -1.7
v 1.1 1 -1.7
v -1.1 1 -2
v 1.1 1 -2
v -0.2 1.7 -1.7
v 0 1.7 -1.7
v -0.2 1.7 -1.8
v 0 1.7 -1.8
v 0 1.9 -1.7
v 0.2 1.9 -1.7
v 0.8 1.9 -1.7
v 1 1.9 -1.7
v 0 1.9 -1.8
v 0.2 1.9 -1.8
v 0.8 1.9 -1.8
v 1 1.9 -1.8
v 0.8 1.1 -1.7
v 1 1.1 -1.7
v 0.8 1.1 -1.8
v 1 1.1 -1.8
v 0 1.3 -1.7
v 0.2 1.3 -1.7
v 0 1.3 -1.8
v 0.2 1.3 -1.8
v -0.2 1.5 -1.7
v 0 1.5 -1.7
v -0.2 1.5 -1.8
v 0 1.5 -1.8
v -1.1 2 -1.7
v 1.1 2 -1.7
v -1 2 -1.8
v 1 2 -1.8
v -1 2 -1.9
v 1 2 -1.9
v -1.1 2 -2
v 1.1 2 -2

# faces
f 3/9/1 2/9/1 1/9/1
f 4/9/1 2/9/1 3/9/1
f 7/2/1 6/2/1 5/2/1
f 8/2/1 6/2/1 7/2/1
f 9/3/1 8/3/1 7/3/1
f 10/3/1 8/3/1 9/3/1
f 13/9/1 12/9/1 11/9/1
f 14/9/1 12/9/1 13/9/1
f 15/4/2 16/4/2 17/4/2
f 17/4/2 16/4/2 18/4/2
f 19/1/2 20/1/2 21/1/2
f 21/1/2 20/1/2 22/1/2
f 23/4/2 24/4/2 25/4/2
f 25/4/2 24/4/2 26/4/2
f 27/6/2 28/6/2 29/6/2
f 29/6/2 28/6/2 30/6/2
f 29/3/2 30/3/2 31/3/2
f 31/3/2 30/3/2 32/3/2
f 33/9/2 34/9/2 35/9/2
f 35/9/2 34/9/2 36/9/2
f 39/9/3 38/9/3 37/9/3
f 40/9/3 38/9/3 39/9/3
f 41/9/3 38/9/3 40/9/3
f 42/9/3 38/9/3 41/9/3
f 43/5/3 41/5/3 40/5/3
f 43/6/3 42/6/3 41/6/3
f 44/6/3 42/6/3 43/6/3
f 45/5/3 43/5/3 40/5/3
f 45/5/3 44/5/3 43/5/3
f 46/6/3 42/6/3 44/6/3
f 46/5/3 44/5/3 45/5/3
f 47/7/3 40/7/3 39/7/3
f 47/5/3 45/5/3 40/5/3
f 48/4/3 46/4/3 45/4/3
f 48/5/3 45/5/3 47/5/3
f 49/6/3 42/6/3 46/6/3
f 49/4/3 46/4/3 48/4/3
f 50/9/3 38/9/3 42/9/3
f 50/6/3 42/6/3 49/6/3
f 51/9/3 39/9/3 37/9/3
f 51/7/3 47/7/3 39/7/3
f 52/1/3 48/1/3 47/1/3
f 52/7/3 47/7/3 51/7/3
f 53/4/3 49/4/3 48/4/3
f 53/1/3 48/1/3 52/1/3
f 53/4/3 50/4/3 49/4/3
f 54/4/3 50/4/3 53/4/3
f 55/1/3 52/1/3 51/1/3
f 55/1/3 53/1/3 52/1/3
f 56/1/3 53/1/3 55/1/3
f 57/4/3 50/4/3 54/4/3
f 58/9/3 38/9/3 50/9/3
f 58/4/3 50/4/3 57/4/3
f 59/9/3 51/9/3 37/9/3
f 59/1/3 55/1/3 51/1/3
f 60/1/3 55/1/3 59/1/3
f 62/9/3 38/9/3 58/9/3
f 63/2/3 61/2/3 60/2/3
f 63/6/3 60/6/3 59/6/3
f 64/2/3 61/2/3 63/2/3
f 65/3/3 62/3/3 61/3/3
f 65/2/3 61/2/3 64/2/3
f 66/6/3 64/6/3 63/6/3
f 66/9/3 59/9/3 37/9/3
f 66/6/3 63/6/3 59/6/3
f 67/3/3 65/3/3 64/3/3
f 67/6/3 64/6/3 66/6/3
f 68/3/3 62/3/3 65/3/3
f 68/3/3 65/3/3 67/3/3
f 68/9/3 38/9/3 62/9/3
f 69/9/3 66/9/3 37/9/3
f 70/9/3 38/9/3 68/9/3
f 71/9/3 69/9/3 37/9/3
f 71/9/3 70/9/3 69/9/3
f 72/9/3 38/9/3 70/9/3
f 72/9/3 70/9/3 71/9/3
f 76/8/3 74/8/3 73/8/3
f 77/8/3 74/8/3 76/8/3
f 79/8/3 76/8/3 75/8/3
f 79/8/3 78/8/3 77/8/3
f 79/8/3 77/8/3 76/8/3
f 80/8/3 78/8/3 79/8/3
f 81/8/3 78/8/3 80/8/3
f 85/8/3 83/8/3 82/8/3
f 85/8/3 84/8/3 83/8/3
f 86/8/3 84/8/3 85/8/3
f 87/9/4 88/9/4 89/9/4
f 89/9/4 88/9/4 90/9/4
f 93/9/5 92/9/5 91/9/5
f 94/9/5 92/9/5 93/9/5
f 97/4/5 96/4/5 95/4/5
f 98/4/5 96/4/5 97/4/5
f 103/9/5 100/9/5 99/9/5
f 104/9/5 100/9/5 103/9/5
f 105/9/5 102/9/5 101/9/5
f 106/9/5 102/9/5 105/9/5
f 107/9/6 108/9/6 109/9/6
f 109/9/6 108/9/6 110/9/6
f 111/1/6 112/1/6 113/1/6
f 113/1/6 112/1/6 114/1/6
f 115/1/6 116/1/6 117/1/6
f 117/1/6 116/1/6 118/1/6
f 119/9/6 120/9/6 121/9/6
f 121/9/6 120/9/6 122/9/6
f 119/9/6 121/9/6 123/9/6
f 121/8/6 122/8/6 123/8/6
f 122/9/6 120/9/6 124/9/6
f 123/8/6 122/8/6 124/8/6
f 119/9/6 123/9/6 125/9/6
f 123/9/6 124/9/6 125/9/6
f 124/9/6 120/9/6 126/9/6
f 125/9/6 124/9/6 126/9/6
