# MagicaVoxel @ Ephtracy

# group
o 

# material
mtllib Heart.vox-1.mtl
usemtl palette

# normals
vn -1 0 0
vn 1 0 0
vn 0 0 1
vn 0 0 -1
vn 0 -1 0
vn 0 1 0

# texcoords
vt 0.908203 0.5
vt 0.939453 0.5

# verts
v -0.1 1.6 -1.8
v -0.1 1.6 -2
v -0.1 1.8 -1.8
v -0.1 1.8 -2
v 0 1.5 -1.8
v 0 1.5 -2
v 0 1.6 -1.8
v 0 1.6 -2
v 0 1.8 -1.8
v 0 1.8 -2
v 0 1.9 -1.8
v 0 1.9 -2
v 0.1 1.4 -1.8
v 0.1 1.4 -2
v 0.1 1.5 -1.8
v 0.1 1.5 -2
v 0.2 1.3 -1.8
v 0.2 1.3 -2
v 0.2 1.4 -1.8
v 0.2 1.4 -2
v 0.3 1.8 -1.8
v 0.3 1.8 -2
v 0.3 1.9 -1.8
v 0.3 1.9 -2
v 0.2 1.8 -1.8
v 0.2 1.8 -2
v 0.2 1.9 -1.8
v 0.2 1.9 -2
v 0.3 1.3 -1.8
v 0.3 1.3 -2
v 0.3 1.4 -1.8
v 0.3 1.4 -2
v 0.4 1.4 -1.8
v 0.4 1.4 -2
v 0.4 1.5 -1.8
v 0.4 1.5 -2
v 0.5 1.5 -1.8
v 0.5 1.5 -2
v 0.5 1.6 -1.8
v 0.5 1.6 -2
v 0.5 1.8 -1.8
v 0.5 1.8 -2
v 0.5 1.9 -1.8
v 0.5 1.9 -2
v 0.6 1.6 -1.8
v 0.6 1.6 -2
v 0.6 1.8 -1.8
v 0.6 1.8 -2
v -0.1 1.6 -1.8
v -0.1 1.8 -1.8
v 0 1.5 -1.8
v 0 1.6 -1.8
v 0 1.8 -1.8
v 0 1.9 -1.8
v 0.1 1.4 -1.8
v 0.1 1.5 -1.8
v 0.2 1.3 -1.8
v 0.2 1.4 -1.8
v 0.2 1.8 -1.8
v 0.2 1.9 -1.8
v 0.3 1.3 -1.8
v 0.3 1.4 -1.8
v 0.3 1.8 -1.8
v 0.3 1.9 -1.8
v 0.4 1.4 -1.8
v 0.4 1.5 -1.8
v 0.5 1.5 -1.8
v 0.5 1.6 -1.8
v 0.5 1.8 -1.8
v 0.5 1.9 -1.8
v 0.6 1.6 -1.8
v 0.6 1.8 -1.8
v -0.1 1.6 -2
v -0.1 1.8 -2
v 0 1.5 -2
v 0 1.6 -2
v 0 1.8 -2
v 0 1.9 -2
v 0.1 1.4 -2
v 0.1 1.5 -2
v 0.2 1.3 -2
v 0.2 1.4 -2
v 0.2 1.8 -2
v 0.2 1.9 -2
v 0.3 1.3 -2
v 0.3 1.4 -2
v 0.3 1.8 -2
v 0.3 1.9 -2
v 0.4 1.4 -2
v 0.4 1.5 -2
v 0.5 1.5 -2
v 0.5 1.6 -2
v 0.5 1.8 -2
v 0.5 1.9 -2
v 0.6 1.6 -2
v 0.6 1.8 -2
v 0.2 1.3 -1.8
v 0.3 1.3 -1.8
v 0.2 1.3 -2
v 0.3 1.3 -2
v 0.1 1.4 -1.8
v 0.2 1.4 -1.8
v 0.3 1.4 -1.8
v 0.4 1.4 -1.8
v 0.1 1.4 -2
v 0.2 1.4 -2
v 0.3 1.4 -2
v 0.4 1.4 -2
v 0 1.5 -1.8
v 0.1 1.5 -1.8
v 0.4 1.5 -1.8
v 0.5 1.5 -1.8
v 0 1.5 -2
v 0.1 1.5 -2
v 0.4 1.5 -2
v 0.5 1.5 -2
v -0.1 1.6 -1.8
v 0 1.6 -1.8
v 0.5 1.6 -1.8
v 0.6 1.6 -1.8
v -0.1 1.6 -2
v 0 1.6 -2
v 0.5 1.6 -2
v 0.6 1.6 -2
v -0.1 1.8 -1.8
v 0 1.8 -1.8
v 0.2 1.8 -1.8
v 0.3 1.8 -1.8
v 0.5 1.8 -1.8
v 0.6 1.8 -1.8
v -0.1 1.8 -2
v 0 1.8 -2
v 0.2 1.8 -2
v 0.3 1.8 -2
v 0.5 1.8 -2
v 0.6 1.8 -2
v 0 1.9 -1.8
v 0.2 1.9 -1.8
v 0.3 1.9 -1.8
v 0.5 1.9 -1.8
v 0 1.9 -2
v 0.2 1.9 -2
v 0.3 1.9 -2
v 0.5 1.9 -2

# faces
f 3/2/1 2/2/1 1/2/1
f 4/2/1 2/2/1 3/2/1
f 7/2/1 6/2/1 5/2/1
f 8/2/1 6/2/1 7/2/1
f 11/2/1 10/2/1 9/2/1
f 12/2/1 10/2/1 11/2/1
f 15/2/1 14/2/1 13/2/1
f 16/2/1 14/2/1 15/2/1
f 19/2/1 18/2/1 17/2/1
f 20/2/1 18/2/1 19/2/1
f 23/1/1 22/1/1 21/1/1
f 24/1/1 22/1/1 23/1/1
f 25/2/2 26/2/2 27/2/2
f 27/2/2 26/2/2 28/2/2
f 29/2/2 30/2/2 31/2/2
f 31/2/2 30/2/2 32/2/2
f 33/1/2 34/1/2 35/1/2
f 35/1/2 34/1/2 36/1/2
f 37/1/2 38/1/2 39/1/2
f 39/1/2 38/1/2 40/1/2
f 41/1/2 42/1/2 43/1/2
f 43/1/2 42/1/2 44/1/2
f 45/1/2 46/1/2 47/1/2
f 47/1/2 46/1/2 48/1/2
f 52/2/3 50/2/3 49/2/3
f 53/2/3 50/2/3 52/2/3
f 56/2/3 52/2/3 51/2/3
f 56/2/3 54/2/3 53/2/3
f 56/2/3 53/2/3 52/2/3
f 58/2/3 56/2/3 55/2/3
f 59/2/3 54/2/3 56/2/3
f 59/2/3 56/2/3 58/2/3
f 60/2/3 54/2/3 59/2/3
f 61/2/3 58/2/3 57/2/3
f 61/2/3 59/2/3 58/2/3
f 62/2/3 59/2/3 61/2/3
f 63/2/3 59/2/3 62/2/3
f 65/1/3 64/1/3 63/1/3
f 65/1/3 63/1/3 62/1/3
f 66/1/3 64/1/3 65/1/3
f 67/1/3 64/1/3 66/1/3
f 68/1/3 64/1/3 67/1/3
f 69/1/3 64/1/3 68/1/3
f 70/1/3 64/1/3 69/1/3
f 71/1/3 69/1/3 68/1/3
f 72/1/3 69/1/3 71/1/3
f 73/2/4 74/2/4 76/2/4
f 76/2/4 74/2/4 77/2/4
f 75/2/4 76/2/4 80/2/4
f 77/2/4 78/2/4 80/2/4
f 76/2/4 77/2/4 80/2/4
f 79/2/4 80/2/4 82/2/4
f 80/2/4 78/2/4 83/2/4
f 82/2/4 80/2/4 83/2/4
f 83/2/4 78/2/4 84/2/4
f 81/2/4 82/2/4 85/2/4
f 82/2/4 83/2/4 85/2/4
f 85/2/4 83/2/4 86/2/4
f 86/2/4 83/2/4 87/2/4
f 87/1/4 88/1/4 89/1/4
f 86/1/4 87/1/4 89/1/4
f 89/1/4 88/1/4 90/1/4
f 90/1/4 88/1/4 91/1/4
f 91/1/4 88/1/4 92/1/4
f 92/1/4 88/1/4 93/1/4
f 93/1/4 88/1/4 94/1/4
f 92/1/4 93/1/4 95/1/4
f 95/1/4 93/1/4 96/1/4
f 99/2/5 98/2/5 97/2/5
f 100/2/5 98/2/5 99/2/5
f 105/2/5 102/2/5 101/2/5
f 106/2/5 102/2/5 105/2/5
f 107/1/5 104/1/5 103/1/5
f 108/1/5 104/1/5 107/1/5
f 113/2/5 110/2/5 109/2/5
f 114/2/5 110/2/5 113/2/5
f 115/1/5 112/1/5 111/1/5
f 116/1/5 112/1/5 115/1/5
f 121/2/5 118/2/5 117/2/5
f 122/2/5 118/2/5 121/2/5
f 123/1/5 120/1/5 119/1/5
f 124/1/5 120/1/5 123/1/5
f 125/2/6 126/2/6 131/2/6
f 131/2/6 126/2/6 132/2/6
f 127/2/6 128/2/6 133/2/6
f 133/2/6 128/2/6 134/2/6
f 129/1/6 130/1/6 135/1/6
f 135/1/6 130/1/6 136/1/6
f 137/2/6 138/2/6 141/2/6
f 141/2/6 138/2/6 142/2/6
f 139/1/6 140/1/6 143/1/6
f 143/1/6 140/1/6 144/1/6
