# MagicaVoxel @ Ephtracy

# group
o 

# material
mtllib Room.vox-0.mtl
usemtl palette

# normals
vn -1 0 0
vn 1 0 0
vn 0 0 1
vn 0 0 -1
vn 0 -1 0
vn 0 1 0

# texcoords
vt 0.908203 0.5
vt 0.974609 0.5
vt 0.978516 0.5

# verts
v 5.1 1.5 -0.9
v 5.1 1.5 -1.2
v 5.1 1.6 -1
v 5.1 1.6 -1.1
v 5.1 1.7 -1
v 5.1 1.7 -1.1
v 5.1 1.8 -0.9
v 5.1 1.8 -1.2
v 5.2 1.6 -1
v 5.2 1.6 -1.1
v 5.2 1.7 -1
v 5.2 1.7 -1.1
v 5.4 0.1 0.5
v 5.4 0.1 -1.4
v 5.4 1.5 -0.9
v 5.4 1.5 -1.2
v 5.4 1.8 -0.9
v 5.4 1.8 -1.2
v 5.4 3.6 0.5
v 5.4 3.6 -1.4
v 5.5 0.1 0.5
v 5.5 0.1 -1.4
v 5.5 3.6 0.5
v 5.5 3.6 -1.4
v 5.4 0.1 0.5
v 5.4 3.6 0.5
v 5.5 0.1 0.5
v 5.5 3.6 0.5
v 5.1 1.5 -0.9
v 5.1 1.8 -0.9
v 5.4 1.5 -0.9
v 5.4 1.8 -0.9
v 5.1 1.6 -1.1
v 5.1 1.7 -1.1
v 5.2 1.6 -1.1
v 5.2 1.7 -1.1
v 5.1 1.6 -1
v 5.1 1.7 -1
v 5.2 1.6 -1
v 5.2 1.7 -1
v 5.1 1.5 -1.2
v 5.1 1.8 -1.2
v 5.4 1.5 -1.2
v 5.4 1.8 -1.2
v 5.4 0.1 -1.4
v 5.4 3.6 -1.4
v 5.5 0.1 -1.4
v 5.5 3.6 -1.4
v 5.4 0.1 0.5
v 5.5 0.1 0.5
v 5.4 0.1 -1.4
v 5.5 0.1 -1.4
v 5.1 1.5 -0.9
v 5.4 1.5 -0.9
v 5.1 1.5 -1.2
v 5.4 1.5 -1.2
v 5.1 1.7 -1
v 5.2 1.7 -1
v 5.1 1.7 -1.1
v 5.2 1.7 -1.1
v 5.1 1.6 -1
v 5.2 1.6 -1
v 5.1 1.6 -1.1
v 5.2 1.6 -1.1
v 5.1 1.8 -0.9
v 5.4 1.8 -0.9
v 5.1 1.8 -1.2
v 5.4 1.8 -1.2
v 5.4 3.6 0.5
v 5.5 3.6 0.5
v 5.4 3.6 -1.4
v 5.5 3.6 -1.4

# faces
f 3/2/1 2/2/1 1/2/1
f 4/2/1 2/2/1 3/2/1
f 5/2/1 3/2/1 1/2/1
f 6/2/1 2/2/1 4/2/1
f 7/2/1 5/2/1 1/2/1
f 7/2/1 6/2/1 5/2/1
f 8/2/1 2/2/1 6/2/1
f 8/2/1 6/2/1 7/2/1
f 11/3/1 10/3/1 9/3/1
f 12/3/1 10/3/1 11/3/1
f 15/1/1 14/1/1 13/1/1
f 16/1/1 14/1/1 15/1/1
f 17/1/1 15/1/1 13/1/1
f 18/1/1 14/1/1 16/1/1
f 19/1/1 17/1/1 13/1/1
f 19/1/1 18/1/1 17/1/1
f 20/1/1 14/1/1 18/1/1
f 20/1/1 18/1/1 19/1/1
f 21/1/2 22/1/2 23/1/2
f 23/1/2 22/1/2 24/1/2
f 27/1/3 26/1/3 25/1/3
f 28/1/3 26/1/3 27/1/3
f 31/2/3 30/2/3 29/2/3
f 32/2/3 30/2/3 31/2/3
f 35/2/3 34/2/3 33/2/3
f 36/2/3 34/2/3 35/2/3
f 37/2/4 38/2/4 39/2/4
f 39/2/4 38/2/4 40/2/4
f 41/2/4 42/2/4 43/2/4
f 43/2/4 42/2/4 44/2/4
f 45/1/4 46/1/4 47/1/4
f 47/1/4 46/1/4 48/1/4
f 51/1/5 50/1/5 49/1/5
f 52/1/5 50/1/5 51/1/5
f 55/2/5 54/2/5 53/2/5
f 56/2/5 54/2/5 55/2/5
f 59/2/5 58/2/5 57/2/5
f 60/2/5 58/2/5 59/2/5
f 61/2/6 62/2/6 63/2/6
f 63/2/6 62/2/6 64/2/6
f 65/2/6 66/2/6 67/2/6
f 67/2/6 66/2/6 68/2/6
f 69/1/6 70/1/6 71/1/6
f 71/1/6 70/1/6 72/1/6
